<svg width="216" height="211" viewBox="0 0 216 211" fill="none" xmlns="http://www.w3.org/2000/svg">
<g clip-path="url(#clip0_5452_9769)">
<g opacity="0.57">
<path d="M147.27 196.58C145.09 186.91 147.82 178.19 148.66 168.32C149.5 158.44 152.52 148.62 158.32 140.58C160.61 143.57 162.49 146.87 163.9 150.36C162.7 145.77 161.54 140.72 163.6 136.45C164.5 134.59 165.94 133.05 167.45 131.64C171.81 127.56 176.89 124.25 182.39 121.92C182.43 129.6 178.6 137.2 172.41 141.74C175.38 140.97 178.2 139.65 180.7 137.87C180.39 148.08 173.44 157.77 163.87 161.33C166.6 161.56 169.38 161.11 171.9 160.04C168.56 174.99 156.87 178.43 148.79 196.4" fill="url(#paint0_linear_5452_9769)"/>
</g>
<g opacity="0.57">
<path d="M79.94 189.24L61.4 178.05C60.16 177.3 60.81 175.55 62.34 175.59C66.2 175.68 70.01 176.79 73.08 178.79C72.1 174.18 66.48 171.75 61.5 170.01C57.54 168.63 53.17 166.86 50.98 163.89C50.09 162.69 51.1 161.07 52.75 160.99C56.44 160.81 60.18 161.55 63.36 163.13C57.79 159.07 51.56 155.69 44.91 153.11C43.39 152.52 41.72 151.81 40.47 150.87C38.9 149.67 39.79 147.36 41.9 147.24C44.26 147.1 46.65 147.37 48.87 148.02C42.25 144.47 35.03 140.18 33.64 133.48C33.35 132.07 33.36 130.5 35.24 129.54C36.01 129.15 36.91 128.98 37.79 129.04C39.87 129.19 41.53 130.34 43 131.54C46.53 134.42 49.48 137.83 51.7 141.57C52.09 142.23 53.24 142.11 53.45 141.38C54.12 138.98 51.89 135.26 54.36 133.72C55.55 132.98 57.19 133.19 58.17 134.11C59.97 135.79 59.66 138.03 59.55 140.13C59.28 145.03 60.21 149.95 62.26 154.48C63.23 153.51 64.22 152.56 65.22 151.61C67.27 149.66 70.97 150.78 71.1 153.4C71.29 157.22 69.67 161.78 71.02 165.52C71.23 166.09 71.57 166.71 72.53 166.59C73.41 166.49 74.09 165.84 74.25 165.08C74.93 161.87 79.29 162.86 80.27 165.06C81.09 166.88 80.36 168.94 79.62 170.81C78.88 172.68 78.12 174.73 78.88 176.56L82.25 174.28C83.62 173.36 85.52 174.33 85.28 175.81C85.02 177.38 84.09 179.03 83.19 180.46C81.66 182.9 80.32 186.15 82.42 188.17" fill="url(#paint1_linear_5452_9769)"/>
</g>
<path d="M86.3502 202.16C73.8202 189.65 59.4502 178.38 42.9502 173.3C47.1802 173.19 51.4602 173.23 55.6202 174.32C60.8802 175.7 64.3702 177.6 66.8102 178.96C73.6302 182.76 76.6002 185.84 82.9102 190.52" fill="url(#paint2_linear_5452_9769)"/>
<path d="M84.8499 201.969C73.8799 194.509 61.7299 188.229 48.8799 186.799C51.9799 186.129 55.1299 185.559 58.3499 185.779C62.4099 186.059 65.2499 186.969 67.2299 187.629C72.7799 189.469 75.3899 191.319 80.6999 193.889" fill="url(#paint3_linear_5452_9769)"/>
<path d="M140.09 203.3C142.62 199.31 147.52 196.98 152.18 197.55C154.83 197.88 157.38 199.05 160.05 198.94C162.72 198.83 165.64 196.59 165.04 193.96C164.5 191.62 161.72 190.72 159.37 190.39C159.41 189.14 160.7 188.24 161.94 188.16C163.18 188.08 164.36 188.6 165.52 189.05C167.39 189.79 169.55 190.37 171.37 189.51C173.19 188.65 173.98 185.7 172.3 184.59C170.98 183.73 169.09 184.47 167.74 183.66C167.31 181.72 169.1 179.94 170.97 179.35C172.84 178.76 174.88 178.92 176.78 178.43C178.68 177.95 180.62 176.43 180.51 174.45C180.4 172.51 178.3 171.19 176.38 171.23C174.46 171.28 172.71 172.3 171.06 173.29C169.42 171.17 173.22 168.25 172.36 165.7C171.8 164.03 169.43 163.67 167.94 164.57C166.44 165.48 165.62 167.17 164.89 168.76C163.45 171.88 162.01 175 160.57 178.12C158.58 178.34 159.73 174.11 157.9 173.29C156.84 172.82 155.78 173.95 155.28 175C153.47 178.84 153.71 183.34 152.36 187.36C152.02 188.36 151.28 189.51 150.25 189.35C147.78 188.96 150.37 183.48 147.92 182.95C147.02 182.75 146.24 183.57 145.78 184.38C143.07 189.11 144.35 196.1 140.02 199.38" fill="url(#paint4_linear_5452_9769)"/>
<path d="M168.14 86.7695H55.7998V95.6095H59.1398L82.2098 202.84H142.51L164.8 95.6095H168.14V86.7695Z" fill="#FFCB09"/>
<path d="M115.17 155.189L120.71 145.989L120.84 149.439L127.5 149.699C129.74 149.779 132.74 149.169 134.54 147.929C135.13 147.529 135.61 146.979 135.95 146.349C135.95 146.349 136.86 145.069 136.76 143.259C136.76 143.199 136.76 143.209 136.76 143.289C136.87 144.349 136.73 145.409 136.37 146.409L134.26 152.269C132.9 156.039 130.01 159.139 126.24 160.499C125.39 160.809 124.61 160.989 124.03 160.979L120.73 160.939L120.58 163.889L115.15 155.179L115.17 155.189Z" fill="white"/>
<path d="M121.55 136.469L132.15 132.089L135.39 140.969C136.05 142.789 135.66 144.819 134.37 146.259C133.49 147.239 132.85 147.469 130.89 148.159L129.61 148.359C127.94 148.509 126.91 148.509 125.3 145.039L121.55 136.469Z" fill="white"/>
<path d="M100.42 135.439L105.89 144.689L102.79 143.159L99.3999 148.899C98.2699 150.829 97.3799 153.759 97.6099 155.939C97.6899 156.649 97.9399 157.329 98.3299 157.929C98.3299 157.929 99.0299 159.339 100.66 160.109C100.72 160.139 100.7 160.129 100.63 160.109C99.6499 159.709 98.7699 159.079 98.0699 158.289L93.9199 153.649C91.2499 150.659 89.8999 146.649 90.4799 142.679C90.6099 141.779 90.8199 141.019 91.1099 140.499L92.7099 137.619L90.1899 136.089L100.43 135.449L100.42 135.439Z" fill="white"/>
<path d="M113.96 150.419L112.78 161.829L103.43 160.459C101.52 160.179 99.9098 158.869 99.2598 157.049C98.8098 155.799 98.9098 155.139 99.2398 153.089L99.6698 151.869C100.33 150.329 100.83 149.419 104.63 149.649L113.96 150.419Z" fill="white"/>
<path d="M123.86 133.669L113.17 132.619L116.24 131.019L113.62 124.889C112.73 122.839 110.89 120.379 109 119.289C108.38 118.929 107.68 118.729 106.97 118.699C106.97 118.699 105.42 118.429 103.83 119.289C103.77 119.319 103.79 119.309 103.85 119.269C104.76 118.719 105.78 118.379 106.84 118.279L113.03 117.669C117.02 117.279 121.05 118.559 123.91 121.379C124.55 122.019 125.05 122.639 125.3 123.169L126.68 126.159L129.41 125.029L123.87 133.669H123.86Z" fill="white"/>
<path d="M103.68 135.539L95.1699 127.839L101.8 121.099C103.16 119.719 105.16 119.199 107.02 119.749C108.29 120.129 108.77 120.599 110.23 122.079L110.96 123.149C111.82 124.589 112.25 125.529 109.81 128.459L103.68 135.529V135.539Z" fill="white"/>
<path opacity="0.42" d="M142.51 202.84L164.8 95.6096H168.14L168.05 95.4396L124.99 95.3496L150.52 99.4396C150.52 99.4396 138.08 178.62 134.58 202.84H142.51Z" fill="#A69600"/>
<path opacity="0.48" d="M154.952 35.412L123.845 22.54L103.652 68.2503L135.226 81.599L154.952 35.412Z" fill="#666868"/>
<path opacity="0.71" d="M103.69 67.7666L119.756 56.6602L135.128 81.5702" fill="#666868"/>
<path d="M147.005 43.2586L123.895 33.25" stroke="white" stroke-width="0.28" stroke-miterlimit="10"/>
<path d="M144.737 49.7009L121.633 39.6729" stroke="white" stroke-width="0.28" stroke-miterlimit="10"/>
<path d="M141.517 56.2848L118.416 46.2471" stroke="white" stroke-width="0.28" stroke-miterlimit="10"/>
<path opacity="0.48" d="M90.5292 8.51108L66.7741 17.4632L80.367 51.3004L104.631 42.361L90.5292 8.51108Z" fill="#666868"/>
<path opacity="0.71" d="M79.9893 51.2524L82.7241 37.5204L104.243 42.655" fill="#666868"/>
<path d="M90.4493 16.267L72.9102 22.834" stroke="white" stroke-width="0.20701" stroke-miterlimit="10"/>
<path d="M92.5818 20.8432L75.0352 27.3965" stroke="white" stroke-width="0.20701" stroke-miterlimit="10"/>
<path d="M94.2847 25.9878L76.7344 32.5342" stroke="white" stroke-width="0.20701" stroke-miterlimit="10"/>
</g>
<defs>
<linearGradient id="paint0_linear_5452_9769" x1="140.204" y1="164.821" x2="189.509" y2="153.854" gradientUnits="userSpaceOnUse">
<stop stop-color="#4BAB83" stop-opacity="0.2"/>
<stop offset="1" stop-color="#4AB2C5"/>
</linearGradient>
<linearGradient id="paint1_linear_5452_9769" x1="36.4522" y1="161.439" x2="83.1747" y2="156.627" gradientUnits="userSpaceOnUse">
<stop stop-color="#4BAB83" stop-opacity="0.2"/>
<stop offset="1" stop-color="#4AB2C5"/>
</linearGradient>
<linearGradient id="paint2_linear_5452_9769" x1="55.2298" y1="192.781" x2="77.6581" y2="179.733" gradientUnits="userSpaceOnUse">
<stop stop-color="#4BAB83"/>
<stop offset="1" stop-color="#91D8C5"/>
</linearGradient>
<linearGradient id="paint3_linear_5452_9769" x1="60.9227" y1="199.197" x2="75.6056" y2="186.456" gradientUnits="userSpaceOnUse">
<stop stop-color="#4BAB83"/>
<stop offset="1" stop-color="#91D8C5"/>
</linearGradient>
<linearGradient id="paint4_linear_5452_9769" x1="137.601" y1="184.685" x2="180.906" y2="178.83" gradientUnits="userSpaceOnUse">
<stop stop-color="#4BAB83"/>
<stop offset="1" stop-color="#91D8C5"/>
</linearGradient>
<clipPath id="clip0_5452_9769">
<rect width="148" height="195" fill="white" transform="translate(33.5 8)"/>
</clipPath>
</defs>
</svg>
