<svg width="256" height="120" viewBox="0 0 256 120" fill="none" xmlns="http://www.w3.org/2000/svg">
<path fill-rule="evenodd" clip-rule="evenodd" d="M248.738 0C252.748 0 256 1.26416 256 2.82353V117.176C256 118.736 252.748 120 248.738 120H7.26241C3.25149 120 0 118.736 0 117.176V2.82353C0 1.26416 3.25149 0 7.26241 0H248.738Z" fill="#F7F7F7"/>
<path fill-rule="evenodd" clip-rule="evenodd" d="M12.7213 17H242.266C244.263 17 245.881 17.5726 245.881 18.2789V109.721C245.881 110.427 244.263 111 242.266 111H12.7213C10.7249 111 9.10645 110.427 9.10645 109.721V18.2789C9.10645 17.5726 10.7249 17 12.7213 17Z" fill="#EEEEEE"/>
<path fill-rule="evenodd" clip-rule="evenodd" d="M17.0275 5.13798C18.6082 6.7186 18.6082 9.28129 17.0275 10.8619C15.4469 12.4425 12.8843 12.4425 11.3036 10.8619C9.72301 9.28129 9.72301 6.7186 11.3036 5.13798C12.8843 3.55736 15.4469 3.55736 17.0275 5.13798Z" fill="#E1E1E1"/>
<path fill-rule="evenodd" clip-rule="evenodd" d="M31.1936 5.13798C32.7742 6.7186 32.7742 9.28129 31.1936 10.8619C29.613 12.4425 27.0503 12.4425 25.4697 10.8619C23.889 9.28129 23.889 6.7186 25.4697 5.13798C27.0503 3.55736 29.613 3.55736 31.1936 5.13798Z" fill="#E1E1E1"/>
<path fill-rule="evenodd" clip-rule="evenodd" d="M45.3596 5.13798C46.9402 6.7186 46.9402 9.28129 45.3596 10.8619C43.779 12.4425 41.2163 12.4425 39.6357 10.8619C38.055 9.28129 38.055 6.7186 39.6357 5.13798C41.2163 3.55736 43.779 3.55736 45.3596 5.13798Z" fill="#E1E1E1"/>
<path fill-rule="evenodd" clip-rule="evenodd" d="M22.0484 24H233.952C234.952 24 235.763 24.2141 235.763 24.4783V45.5217C235.763 45.7859 234.952 46 233.952 46H22.0484C21.0482 46 20.2373 45.7859 20.2373 45.5217V24.4783C20.2373 24.2141 21.0482 24 22.0484 24Z" fill="#AAAAAA"/>
<path fill-rule="evenodd" clip-rule="evenodd" d="M22.0529 53.647H234.478C235.481 53.647 236.294 53.963 236.294 54.3529V59.294C236.294 59.6839 235.481 59.9999 234.478 59.9999H22.0529C21.0502 59.9999 20.2373 59.6839 20.2373 59.294V54.3529C20.2373 53.963 21.0502 53.647 22.0529 53.647Z" fill="#F7F7F7"/>
<path fill-rule="evenodd" clip-rule="evenodd" d="M22.0529 65.647H183.641C184.644 65.647 185.457 65.963 185.457 66.3529V71.294C185.457 71.6839 184.644 71.9999 183.641 71.9999H22.0529C21.0502 71.9999 20.2373 71.6839 20.2373 71.294V66.3529C20.2373 65.963 21.0502 65.647 22.0529 65.647Z" fill="#F7F7F7"/>
<path fill-rule="evenodd" clip-rule="evenodd" d="M22.0529 77.647H198.166C199.169 77.647 199.982 77.963 199.982 78.3529V83.294C199.982 83.6839 199.169 83.9999 198.166 83.9999H22.0529C21.0502 83.9999 20.2373 83.6839 20.2373 83.294V78.3529C20.2373 77.963 21.0502 77.647 22.0529 77.647Z" fill="#F7F7F7"/>
<path fill-rule="evenodd" clip-rule="evenodd" d="M22.0529 89.647H167.301C168.304 89.647 169.117 89.963 169.117 90.3529V95.294C169.117 95.6839 168.304 95.9999 167.301 95.9999H22.0529C21.0502 95.9999 20.2373 95.6839 20.2373 95.294V90.3529C20.2373 89.963 21.0502 89.647 22.0529 89.647Z" fill="#F7F7F7"/>
<path fill-rule="evenodd" clip-rule="evenodd" d="M22.0529 101.647H183.641C184.644 101.647 185.457 101.963 185.457 102.353V107.294C185.457 107.684 184.644 108 183.641 108H22.0529C21.0502 108 20.2373 107.684 20.2373 107.294V102.353C20.2373 101.963 21.0502 101.647 22.0529 101.647Z" fill="#F7F7F7"/>
</svg>
