<svg width="42" height="34" viewBox="0 0 42 34" fill="none" xmlns="http://www.w3.org/2000/svg">
<path d="M38.7188 2.5625H16.0125C15.8889 2.56248 15.7677 2.59739 15.663 2.66321C15.5584 2.72903 15.4744 2.82308 15.4209 2.93453C15.3673 3.04598 15.3464 3.17029 15.3604 3.29314C15.3744 3.41599 15.4228 3.53238 15.5001 3.62891L18.3876 7.23828C18.694 7.62302 19.0834 7.93353 19.5267 8.1466C19.97 8.35968 20.4557 8.4698 20.9475 8.46875H41.3438C41.5178 8.46875 41.6847 8.39961 41.8078 8.27654C41.9309 8.15347 42 7.98655 42 7.8125V5.84375C41.999 4.97382 41.653 4.13982 41.0378 3.52469C40.4227 2.90956 39.5887 2.56352 38.7188 2.5625Z" fill="#D27401"/>
<path d="M42 7.15626H20.9475C20.6528 7.15625 20.3618 7.08996 20.0962 6.96229C19.8305 6.83462 19.597 6.64884 19.4129 6.4187L16.1306 2.31576C15.7015 1.77758 15.1564 1.34322 14.536 1.04506C13.9155 0.746895 13.2358 0.592628 12.5475 0.593756H3.28125C2.41101 0.593756 1.57641 0.939458 0.961056 1.55481C0.345702 2.17017 0 3.00476 0 3.87501L0 30.125C0 30.9952 0.345702 31.8298 0.961056 32.4452C1.57641 33.0606 2.41101 33.4063 3.28125 33.4063H38.7188C39.589 33.4063 40.4236 33.0606 41.0389 32.4452C41.6543 31.8298 42 30.9952 42 30.125V7.15626Z" fill="#E4AD4C"/>
</svg>
